<?xml version="1.0" standalone="no"?>
<!DOCTYPE svg PUBLIC "-//W3C//DTD SVG 20010904//EN"
 "http://www.w3.org/TR/2001/REC-SVG-20010904/DTD/svg10.dtd">
<svg version="1.0" xmlns="http://www.w3.org/2000/svg"
 width="260.000000pt" height="260.000000pt" viewBox="0 0 260.000000 260.000000"
 preserveAspectRatio="xMidYMid meet">
<metadata>
Created by potrace 1.14, written by Peter Selinger 2001-2017
</metadata>
<g transform="translate(0.000000,260.000000) scale(0.100000,-0.100000)"
fill="#000000" stroke="none">
<path d="M1070 2550 c-433 -92 -765 -428 -845 -854 -14 -73 -16 -144 -13 -434
4 -319 6 -353 26 -426 99 -357 359 -634 706 -752 217 -74 499 -73 709 3 377
135 641 438 712 817 14 73 16 144 13 434 -4 319 -6 353 -26 426 -99 357 -359
634 -706 752 -166 57 -405 71 -576 34z m572 -807 c241 -240 240 -239 166 -319
-100 -109 -376 -363 -401 -369 -21 -6 -32 -1 -57 23 -16 17 -30 40 -30 52 0
26 101 134 214 229 l80 66 -423 5 -424 5 -20 27 c-23 31 -18 67 14 99 21 21
27 21 435 17 228 -1 414 -1 414 2 0 3 -17 18 -37 35 -92 73 -232 208 -243 234
-9 24 -9 35 4 59 17 34 28 40 70 41 26 1 59 -28 238 -206z m-1090 -1018 c155
-147 319 -232 529 -275 136 -28 350 -25 475 8 146 39 284 106 404 198 70 53
195 184 238 249 29 43 33 46 27 20 -76 -350 -324 -616 -670 -721 -83 -25 -104
-28 -260 -28 -156 0 -177 3 -258 27 -257 79 -457 240 -580 467 -36 65 -79 184
-91 249 -6 31 -2 28 43 -35 26 -38 91 -110 143 -159z"/>
</g>
</svg>
