<svg width="410" height="75" viewBox="0 0 410 75" fill="none" xmlns="http://www.w3.org/2000/svg">
<path fill-rule="evenodd" clip-rule="evenodd" d="M0.353516 31.6938C0.353516 29.0784 0.66876 26.5598 1.29925 24.1379C3.92347 13.8632 11.7767 5.62514 21.9205 2.30796C25.0742 1.25439 28.3888 0.7276 31.8643 0.7276H31.8952C32.6924 0.728309 33.4817 0.756836 34.2619 0.813006C35.5771 0.907743 36.8682 1.08115 38.1353 1.33347C50.0597 3.68278 59.553 12.6338 62.4912 24.1379C63.1217 26.5598 63.437 29.0784 63.437 31.6938V43.3062C63.437 60.4083 49.3152 74.2724 31.8952 74.2724C14.4752 74.2724 0.353516 60.4083 0.353516 43.3062V31.6938ZM31.8952 62.6601C27.5866 62.6601 23.5254 61.8505 19.7114 60.2313C15.9183 58.6122 12.5683 56.3757 9.66139 53.522C7.6602 51.5573 5.95692 49.3863 4.5518 47.0091C6.39092 60.2216 17.9322 70.4016 31.8952 70.4016C45.8583 70.4016 57.3996 60.2216 59.2387 47.0091C57.8336 49.3863 56.1303 51.5573 54.1291 53.522C51.2222 56.3757 47.862 58.6122 44.0481 60.2313C40.2549 61.8505 36.2039 62.6601 31.8952 62.6601ZM48.2846 31.6331C48.2846 31.0259 47.9753 30.4188 47.3569 29.8116L36.6265 19.2163C36.1936 18.7913 35.6267 18.5787 34.9257 18.5787C34.2661 18.5787 33.7095 18.8014 33.2558 19.2466C32.8229 19.6717 32.6065 20.208 32.6065 20.8556C32.6065 21.4628 32.8538 22.0194 33.3486 22.5254L37.3068 26.381L41.1413 29.5383L34.4 29.2651H17.8561C17.1552 29.2651 16.5779 29.4878 16.1244 29.933C15.6709 30.3783 15.4441 30.945 15.4441 31.6331C15.4441 32.3213 15.6709 32.888 16.1244 33.3332C16.5779 33.7785 17.1552 34.0011 17.8561 34.0011H34.4L41.1722 33.7279L37.3068 36.9156L33.3486 40.7408C32.8538 41.2063 32.6065 41.7731 32.6065 42.4409C32.6065 43.0886 32.8229 43.635 33.2558 44.0803C33.7095 44.5256 34.2661 44.7482 34.9257 44.7482C35.606 44.7482 36.1729 44.5256 36.6265 44.0803L47.3569 33.485C47.9753 32.8778 48.2846 32.2605 48.2846 31.6331Z" fill="black"/>
<path fill-rule="evenodd" clip-rule="evenodd" d="M104.378 59.3467C100.972 59.3467 97.8806 58.8306 95.1049 57.7983C92.3292 56.7248 89.932 55.1766 87.9134 53.1534C85.8947 51.1303 84.3597 48.6943 83.3083 45.8454C82.2569 42.9965 81.7312 39.7966 81.7312 36.2458C81.7312 32.6537 82.2569 29.4332 83.3083 26.5844C84.4018 23.7355 85.9368 21.3201 87.9134 19.3383C89.932 17.3151 92.3292 15.7875 95.1049 14.7553C97.8806 13.6818 100.972 13.145 104.378 13.145C107.827 13.145 110.939 13.6818 113.715 14.7553C116.49 15.7875 118.866 17.3151 120.843 19.3383C122.862 21.3201 124.397 23.7355 125.448 26.5844C126.541 29.4332 127.088 32.6537 127.088 36.2458C127.088 39.8379 126.541 43.0584 125.448 45.9073C124.397 48.7562 122.862 51.1922 120.843 53.2154C118.824 55.1972 116.427 56.7248 113.651 57.7983C110.876 58.8306 107.785 59.3467 104.378 59.3467ZM104.378 53.525C107.574 53.525 110.329 52.8437 112.642 51.4813C114.997 50.0774 116.806 48.0956 118.067 45.5357C119.371 42.9758 120.023 39.8792 120.023 36.2458C120.023 33.4795 119.644 31.0435 118.887 28.9378C118.172 26.7908 117.121 24.9741 115.733 23.4877C114.387 22.0014 112.747 20.8866 110.813 20.1434C108.92 19.3589 106.775 18.9667 104.378 18.9667C101.182 18.9667 98.4274 19.648 96.1143 21.0104C93.8012 22.373 91.9928 24.3342 90.6891 26.894C89.4274 29.4539 88.7965 32.5712 88.7965 36.2458C88.7965 38.9709 89.154 41.4069 89.869 43.5539C90.626 45.7009 91.6774 47.5176 93.0232 49.004C94.3689 50.449 95.9881 51.5638 97.8806 52.3483C99.8152 53.1328 101.981 53.525 104.378 53.525Z" fill="black"/>
<path fill-rule="evenodd" clip-rule="evenodd" d="M134.081 69.132V26.027H140.326L140.579 32.468H140.957C141.756 30.3622 143.144 28.6694 145.121 27.3895C147.139 26.1096 149.537 25.4696 152.312 25.4696C154.331 25.4696 156.16 25.8412 157.801 26.5844C159.483 27.3276 160.934 28.4217 162.153 29.8668C163.373 31.3119 164.298 33.0873 164.929 35.193C165.602 37.2987 165.938 39.7141 165.938 42.4391C165.938 46.0725 165.37 49.1484 164.235 51.667C163.1 54.1856 161.501 56.1055 159.441 57.4268C157.422 58.7067 155.046 59.3467 152.312 59.3467C150.504 59.3467 148.822 59.0576 147.266 58.4796C145.752 57.9016 144.448 57.0964 143.354 56.0642C142.303 54.9907 141.504 53.7521 140.957 52.3483H140.579V69.132H134.081ZM150.041 54.0824C151.892 54.0824 153.511 53.6489 154.899 52.7818C156.287 51.9148 157.359 50.6142 158.116 48.88C158.915 47.1459 159.314 44.999 159.314 42.4391C159.314 39.8379 158.915 37.691 158.116 35.9981C157.359 34.264 156.287 32.9634 154.899 32.0963C153.511 31.188 151.892 30.7339 150.041 30.7339C148.023 30.7339 146.298 31.2087 144.868 32.1583C143.481 33.0666 142.429 34.2846 141.714 35.8123C140.999 37.2987 140.642 38.8883 140.642 40.5811V44.2351C140.642 45.5151 140.831 46.7537 141.21 47.9511C141.63 49.1071 142.24 50.16 143.039 51.1096C143.838 52.018 144.826 52.7405 146.004 53.2773C147.181 53.814 148.527 54.0824 150.041 54.0824Z" fill="black"/>
<path fill-rule="evenodd" clip-rule="evenodd" d="M178.683 57.3029C181.122 58.6654 184.003 59.3467 187.325 59.3467C189.975 59.3467 192.351 58.9131 194.453 58.0461C196.598 57.1378 198.344 55.8991 199.689 54.3301C201.035 52.7199 201.855 50.8412 202.15 48.6943H195.967C195.547 50.3871 194.559 51.7496 193.002 52.7818C191.446 53.7727 189.554 54.2682 187.325 54.2682C185.39 54.2682 183.687 53.8553 182.215 53.0295C180.785 52.2038 179.671 51.0064 178.872 49.4375C178.073 47.8272 177.652 45.9073 177.61 43.6777H202.339C202.675 40.2508 202.318 37.1749 201.266 34.4498C200.215 31.6835 198.491 29.5159 196.094 27.9469C193.738 26.3367 190.732 25.5315 187.073 25.5315C183.834 25.5315 181.017 26.2334 178.62 27.6372C176.264 28.9997 174.435 30.9609 173.131 33.5208C171.827 36.0807 171.176 39.0947 171.176 42.563C171.176 45.9073 171.827 48.8594 173.131 51.4193C174.435 53.9379 176.285 55.8991 178.683 57.3029ZM177.741 39.1567H195.974C195.926 37.3639 195.567 35.8775 194.895 34.6975C194.138 33.2525 193.066 32.1996 191.678 31.539C190.332 30.8783 188.776 30.5481 187.01 30.5481C185.159 30.5481 183.54 30.9403 182.152 31.7248C180.764 32.468 179.692 33.5621 178.935 35.0072C178.301 36.2168 177.903 37.5999 177.741 39.1567Z" fill="black"/>
<path d="M209.362 58.7893V26.027H215.545L215.797 32.5299H216.175C217.143 30.2177 218.657 28.4836 220.717 27.3276C222.778 26.1302 225.028 25.5315 227.467 25.5315C229.192 25.5315 230.769 25.7793 232.199 26.2747C233.671 26.7702 234.932 27.5753 235.984 28.6901C237.077 29.7636 237.918 31.188 238.507 32.9634C239.096 34.6975 239.39 36.8239 239.39 39.3425V58.7893H232.893V40.6431C232.893 38.4135 232.619 36.5761 232.072 35.1311C231.526 33.6447 230.685 32.5505 229.549 31.8486C228.414 31.1467 226.942 30.7958 225.133 30.7958C223.241 30.7958 221.579 31.25 220.15 32.1583C218.762 33.0666 217.689 34.2846 216.932 35.8123C216.175 37.2987 215.797 38.9915 215.797 40.8908V58.7893H209.362Z" fill="black"/>
<path fill-rule="evenodd" clip-rule="evenodd" d="M249.183 13.6405V58.7893H256.059V42.3772H267.729C271.094 42.3772 273.975 41.7991 276.372 40.6431C278.769 39.4457 280.598 37.7735 281.86 35.6265C283.164 33.4382 283.816 30.899 283.816 28.0088C283.816 25.6967 283.437 23.6529 282.68 21.8775C281.965 20.1021 280.893 18.6157 279.463 17.4184C278.075 16.1797 276.393 15.2508 274.416 14.6314C272.44 13.9708 270.232 13.6405 267.792 13.6405H249.183ZM256.059 36.989H266.72C268.697 36.989 270.442 36.6794 271.956 36.06C273.47 35.4407 274.647 34.4705 275.489 33.1492C276.372 31.828 276.813 30.1764 276.813 28.1946C276.813 26.1715 276.372 24.5199 275.489 23.24C274.647 21.9601 273.47 21.0104 271.956 20.3911C270.442 19.7718 268.697 19.4622 266.72 19.4622H256.059V36.989Z" fill="black"/>
<path d="M290.065 58.7893V13.6405H296.562V58.7893H290.065Z" fill="black"/>
<path fill-rule="evenodd" clip-rule="evenodd" d="M311.393 58.2318C313.075 58.975 314.926 59.3467 316.944 59.3467C319.762 59.3467 322.159 58.7067 324.136 57.4268C326.112 56.1055 327.5 54.3921 328.299 52.2863H328.678V58.7893H335.175V26.027H328.93L328.678 32.468H328.299C327.795 31.0642 326.996 29.8462 325.902 28.814C324.851 27.7404 323.547 26.9147 321.991 26.3367C320.477 25.7586 318.795 25.4696 316.944 25.4696C314.253 25.4696 311.877 26.1302 309.816 27.4514C307.797 28.7314 306.199 30.6306 305.022 33.1492C303.886 35.6678 303.318 38.7438 303.318 42.3772C303.318 45.1435 303.634 47.5795 304.264 49.6852C304.937 51.7909 305.884 53.5663 307.103 55.0114C308.323 56.4152 309.753 57.4887 311.393 58.2318ZM324.388 52.6579C323 53.6076 321.276 54.0824 319.215 54.0824C317.365 54.0824 315.746 53.6489 314.358 52.7818C312.97 51.8735 311.898 50.5522 311.141 48.8181C310.384 47.084 310.005 44.937 310.005 42.3772C310.005 39.776 310.384 37.629 311.141 35.9362C311.898 34.2021 312.97 32.9015 314.358 32.0345C315.746 31.1261 317.365 30.6719 319.215 30.6719C321.276 30.6719 323 31.1467 324.388 32.0963C325.776 33.046 326.827 34.264 327.542 35.7504C328.257 37.2368 328.615 38.8264 328.615 40.5192V44.2351C328.615 45.9279 328.257 47.5176 327.542 49.004C326.827 50.4903 325.776 51.7083 324.388 52.6579Z" fill="black"/>
<path d="M344.277 58.7893V26.027H350.459L350.712 32.5299H351.09C352.057 30.2177 353.571 28.4836 355.632 27.3276C357.693 26.1302 359.943 25.5315 362.382 25.5315C364.106 25.5315 365.683 25.7793 367.113 26.2747C368.585 26.7702 369.847 27.5753 370.898 28.6901C371.992 29.7636 372.833 31.188 373.422 32.9634C374.011 34.6975 374.305 36.8239 374.305 39.3425V58.7893H367.807V40.6431C367.807 38.4135 367.534 36.5761 366.987 35.1311C366.441 33.6447 365.599 32.5505 364.464 31.8486C363.328 31.1467 361.856 30.7958 360.048 30.7958C358.155 30.7958 356.494 31.25 355.064 32.1583C353.677 33.0666 352.604 34.2846 351.847 35.8123C351.09 37.2987 350.712 38.9915 350.712 40.8908V58.7893H344.277Z" fill="black"/>
<path d="M384.918 56.4358C387.399 58.4177 390.932 59.4086 395.516 59.4086C399.889 59.4086 403.338 58.6035 405.861 56.9932C408.385 55.3417 409.646 52.8437 409.646 49.4994C409.646 47.6414 409.31 46.1137 408.637 44.9164C407.964 43.719 407.039 42.79 405.861 42.1294C404.684 41.4275 403.338 40.8908 401.824 40.5192C400.31 40.1476 398.67 39.8379 396.903 39.5902C395.053 39.3425 393.518 39.0534 392.299 38.7231C391.079 38.3515 390.175 37.8354 389.586 37.1749C388.997 36.5142 388.703 35.6678 388.703 34.6356C388.703 33.2318 389.291 32.0963 390.469 31.2293C391.647 30.3622 393.329 29.9287 395.516 29.9287C396.946 29.9287 398.186 30.1351 399.238 30.5481C400.289 30.9609 401.109 31.6009 401.698 32.468C402.287 33.2937 402.581 34.3672 402.581 35.6885H408.953C408.91 33.5415 408.343 31.7041 407.249 30.1764C406.198 28.6488 404.684 27.4721 402.707 26.6463C400.773 25.8206 398.418 25.4077 395.642 25.4077C392.95 25.4077 390.595 25.7999 388.576 26.5844C386.558 27.3689 384.981 28.4836 383.845 29.9287C382.752 31.3738 382.205 33.1492 382.205 35.2549C382.205 36.9065 382.499 38.2896 383.088 39.4044C383.719 40.5192 384.602 41.4275 385.738 42.1294C386.915 42.8313 388.282 43.3887 389.838 43.8016C391.394 44.1732 393.119 44.4829 395.011 44.7306C396.903 45.0196 398.439 45.3499 399.616 45.7215C400.794 46.0518 401.656 46.5473 402.202 47.2079C402.749 47.8685 403.023 48.8181 403.023 50.0568C403.023 51.5844 402.392 52.7818 401.13 53.6489C399.911 54.4746 398.102 54.8875 395.705 54.8875C393.392 54.8875 391.478 54.3921 389.964 53.4011C388.45 52.3689 387.693 50.7381 387.693 48.5085H381.259C381.259 51.7703 382.479 54.4127 384.918 56.4358Z" fill="black"/>
</svg>
